<svg width="48" height="27" viewBox="0 0 48 27" fill="none" xmlns="http://www.w3.org/2000/svg">
<path d="M47.9095 20.4505C47.9095 21.4147 47.6833 22.1492 47.2761 22.6543C46.7333 23.3429 45.8738 23.5266 45.4214 23.5266C45.4214 23.5266 45.3761 23.5266 45.3309 23.5266H45.2857H45.2404C44.0642 23.5266 43.2952 22.5165 43.2499 22.4247L43.2047 22.3788C40.038 18.5223 32.1666 10.6715 28.4571 6.99859C28.5023 6.95268 28.5476 6.95268 28.5928 6.90677C28.7738 6.76904 28.9095 6.6313 29.0904 6.49357C29.2261 6.40175 29.3166 6.30993 29.4523 6.17219C29.588 6.08037 29.6785 5.98855 29.769 5.89673C29.8595 5.85082 29.9047 5.75899 29.9952 5.71308C31.3523 4.56531 32.6642 3.46344 33.569 2.72886C33.6595 2.63704 33.7952 2.54522 33.8857 2.4534C33.9761 2.36158 34.1119 2.26975 34.2023 2.17793C34.519 1.90247 34.6999 1.76473 34.6999 1.76473C34.6999 1.76473 36.5547 0.111935 38.9071 1.44336C39.2238 1.627 39.5404 1.94838 39.9023 2.40749C39.9476 2.4534 39.9928 2.49931 40.038 2.59113L40.0833 2.63704C40.1738 2.72886 40.2642 2.8666 40.3547 3.00433C40.4452 3.14206 40.5357 3.2798 40.6261 3.41753C40.6714 3.50935 40.7166 3.55526 40.7619 3.64709C40.8071 3.693 40.8523 3.73891 40.8523 3.83073C40.8976 3.92255 40.988 4.06029 41.0333 4.15211C41.0785 4.24393 41.1238 4.33575 41.169 4.42757C41.2142 4.47348 41.2142 4.5194 41.2595 4.56531C41.3499 4.70304 41.3952 4.84077 41.4857 4.97851C41.4857 5.02442 41.5309 5.02442 41.5309 5.07033C41.7571 5.48353 42.0285 5.94264 42.2999 6.44766C42.3452 6.53948 42.4357 6.67722 42.4809 6.76904C42.5261 6.86086 42.5714 6.99859 42.6619 7.09041C42.7523 7.27406 42.8428 7.4577 42.9333 7.64135C42.9333 7.68726 42.9785 7.73317 42.9785 7.77908C43.069 7.91681 43.1142 8.10046 43.2047 8.2841C43.4761 8.78912 43.7023 9.34006 43.9285 9.89099C44.019 10.1205 44.1547 10.3501 44.2452 10.6256C44.6071 11.4061 44.9238 12.2325 45.2404 13.0129C45.4214 13.4261 45.6023 13.8853 45.738 14.2984C45.8285 14.528 45.919 14.7116 45.9642 14.9412C46.1452 15.4003 46.3261 15.8594 46.4619 16.3185C46.5523 16.5481 46.5976 16.7317 46.688 16.9613C46.7785 17.1908 46.8238 17.3745 46.9142 17.604C47.0047 17.7877 47.0499 18.0172 47.0952 18.2009C47.1404 18.3845 47.2309 18.6141 47.2761 18.7977C47.3214 18.9355 47.3666 19.0732 47.4119 19.2109C47.5476 19.5782 47.638 19.9914 47.7285 20.3128C47.819 20.1751 47.8642 20.2669 47.9095 20.4505Z" fill="white"/>
<path d="M47.05 24.3998C46.6428 24.9967 46.3262 25.2721 46.3262 25.2721C46.3262 25.2721 44.9238 26.879 42.4809 26.879C42.4809 26.879 40.8524 26.9249 39.5857 26.0526C39.1333 25.7312 37.7762 24.8589 35.8762 23.8489C34.8357 23.298 33.569 22.6552 32.2571 22.1043C32.2119 22.1043 32.2119 22.0584 32.1667 22.0584C30.8095 21.4615 29.4071 20.9106 27.9595 20.4974C27.9595 20.4974 27.9143 20.4974 27.869 20.4515C26.0143 19.9005 24.1143 19.5332 22.3952 19.5332C15.4286 19.5332 3.21427 26.6035 3.21427 26.6035C3.21427 26.6035 2.85237 26.8331 2.30951 26.8331C1.76666 26.8331 0.771417 26.5576 0.499989 25.318C0.364274 24.7671 1.08808 22.8848 2.98808 19.7628C2.98808 19.7628 2.98808 19.7169 3.03332 19.7169C4.02856 18.0641 5.34047 16.0899 7.01428 13.7485C9.32142 10.4888 12.3071 6.63224 16.1524 2.08705C16.1524 2.08705 17.1024 0.939271 18.7762 0.939271C18.7762 0.939271 20.1333 0.847449 21.4 1.9034C21.8524 2.27069 23.7524 4.10713 26.4667 6.72406C31.4881 11.6365 39.269 19.4873 42.2548 23.2061C42.2548 23.2061 43.3857 24.813 45.2405 24.813H45.3309C45.3762 24.813 45.4667 24.813 45.5119 24.813C45.7833 24.7671 46.4167 24.7212 47.05 24.3998Z" fill="white"/>
<path opacity="0.2" d="M47.9095 20.4505C47.9095 21.4147 47.6833 22.1492 47.2761 22.6543C46.7333 23.3429 45.8738 23.5266 45.4214 23.5266C45.4214 23.5266 45.3761 23.5266 45.3309 23.5266H45.2857H45.2404C44.0642 23.5266 43.2952 22.5165 43.2499 22.4247L43.2047 22.3788C40.038 18.5223 32.1666 10.6715 28.4571 6.99859C28.5023 6.95268 28.5476 6.95268 28.5928 6.90677C28.7738 6.76904 28.9095 6.6313 29.0904 6.49357C29.2261 6.40175 29.3166 6.30993 29.4523 6.17219C29.588 6.08037 29.6785 5.98855 29.769 5.89673C32.2119 6.95268 37.2785 9.38597 46.1 14.8035C46.2809 15.2626 46.4619 15.7217 46.5976 16.1808C46.688 16.4104 46.7333 16.594 46.8238 16.8236C46.9142 17.0531 46.9595 17.2368 47.0499 17.4663C47.1404 17.65 47.1857 17.8795 47.2309 18.0632C47.2761 18.2468 47.3666 18.4764 47.4119 18.66C47.4571 18.7977 47.5023 18.9355 47.5476 19.0732C47.6833 19.4405 47.7738 19.8537 47.8642 20.1751C47.819 20.1751 47.8642 20.2669 47.9095 20.4505Z" fill="white"/>
<path opacity="0.2" d="M27.869 20.4047C26.0143 19.8537 24.1143 19.4865 22.3952 19.4865C15.4286 19.5324 3.21427 26.6027 3.21427 26.6027C3.21427 26.6027 2.85237 26.8322 2.30951 26.8322C1.76666 26.8322 0.771417 26.5568 0.499989 25.3172C0.364274 24.7662 1.08808 22.8839 2.98808 19.7619C2.98808 19.7619 2.98808 19.716 3.03332 19.716C13.619 16.0431 26.7381 20.0374 27.869 20.4047Z" fill="white"/>
</svg>
