<svg width="144" height="24" viewBox="0 0 144 24" fill="none" xmlns="http://www.w3.org/2000/svg">
<g clip-path="url(#clip0_406_16509)">
<path d="M60.8418 12.0172C60.8418 8.16069 63.7374 5.19942 67.6209 5.19942C70.1418 5.19942 72.322 6.50789 73.344 8.53945L70.9594 9.95122C70.3802 8.74605 69.1539 7.95409 67.5868 7.95409C65.3385 7.95409 63.6011 9.67575 63.6011 12.0172C63.6011 14.3587 65.3044 16.0803 67.5868 16.0803C69.1198 16.0803 70.3802 15.2884 70.9934 14.0832L73.378 15.4605C72.2879 17.4921 70.1077 18.835 67.6209 18.835C63.7374 18.835 60.8418 15.8393 60.8418 12.0172Z" fill="white"/>
<path d="M73.5483 12.0172C73.5483 8.16069 76.5802 5.19942 80.3275 5.19942C84.1088 5.19942 87.1066 8.16069 87.1066 12.0172C87.1066 15.8393 84.1088 18.835 80.3275 18.835C76.5802 18.835 73.5483 15.8393 73.5483 12.0172ZM84.3132 12.0172C84.3132 9.64132 82.5758 7.91965 80.3275 7.91965C78.0791 7.91965 76.3417 9.64132 76.3417 12.0172C76.3417 14.3931 78.0791 16.1148 80.3275 16.1148C82.5758 16.1148 84.3132 14.3587 84.3132 12.0172Z" fill="white"/>
<path d="M100.222 10.5366V18.4907H97.4286V10.8121C97.4286 8.84935 96.3044 7.81636 94.567 7.81636C92.7615 7.81636 91.2967 8.91822 91.2967 11.5352V18.4907H88.5374V5.50933C90.7516 5.50933 91.2967 6.16356 91.2967 7.16212C92.1483 5.81922 93.5451 5.16499 95.2824 5.16499C98.144 5.19943 100.222 7.16212 100.222 10.5366Z" fill="white"/>
<path d="M105.877 8.22956V14.462C105.877 16.1148 106.967 16.0803 109.045 15.977V18.4907C104.787 19.0072 103.084 17.802 103.084 14.462V8.22956H101.006V5.50933H103.084V4.78623C103.084 3.03013 103.731 2.5825 105.025 2.13486L105.843 1.89383V5.50933H109.011V8.19512H105.877V8.22956Z" fill="white"/>
<path d="M109.897 1.79053C109.897 0.791966 110.68 0 111.668 0C112.656 0 113.44 0.791966 113.44 1.79053C113.44 2.75466 112.656 3.58106 111.668 3.58106C110.714 3.58106 109.897 2.75466 109.897 1.79053ZM110.306 5.50933H113.065V18.4562H110.306V5.50933Z" fill="white"/>
<path d="M127.27 5.50933C126.453 5.50933 125.976 5.71593 125.703 6.02583C125.431 6.37016 125.363 6.85223 125.363 7.40316C124.375 5.9914 122.876 5.13056 120.9 5.13056C117.289 5.13056 114.427 8.12626 114.427 11.8106C114.427 15.5294 117.289 18.4907 120.9 18.4907C122.876 18.4907 124.375 17.6298 125.363 16.2181V17.9053C125.363 20.1779 123.932 21.4864 121.547 21.4864C119.299 21.4864 118.379 20.5911 117.8 19.4892L115.79 21.5208C116.948 23.1736 118.958 24.0344 121.479 24.0344C124.852 24.0344 128.088 22.1062 128.088 17.9053V5.50933H127.27ZM121.309 15.9426C118.958 15.9426 117.221 14.221 117.221 11.8795C117.221 9.53802 118.958 7.81636 121.309 7.81636C123.659 7.81636 125.397 9.53802 125.397 11.8795C125.397 14.221 123.625 15.9426 121.309 15.9426Z" fill="white"/>
<path d="M129.519 12.0172C129.519 8.16069 132.551 5.19942 136.298 5.19942C140.079 5.19942 143.077 8.16069 143.077 12.0172C143.077 15.8393 140.079 18.835 136.298 18.835C132.551 18.835 129.519 15.8393 129.519 12.0172ZM140.318 12.0172C140.318 9.64132 138.58 7.91965 136.332 7.91965C134.084 7.91965 132.346 9.64132 132.346 12.0172C132.346 14.3931 134.084 16.1148 136.332 16.1148C138.546 16.1148 140.318 14.3587 140.318 12.0172Z" fill="white"/>
<path d="M58.9681 10.7776V18.8006H56.2088V10.9498C56.2088 9.12482 55.2208 8.12626 53.7219 8.12626C52.0868 8.12626 50.9285 9.19369 50.9285 11.5352V18.8006H48.1692V10.9498C48.1692 9.12482 47.2835 8.12626 45.7505 8.12626C44.1835 8.12626 42.889 9.19369 42.889 11.5352V18.8006H40.1296V5.85366C42.0373 5.85366 42.889 6.26686 42.889 7.40316C43.7066 6.12913 44.967 5.50933 46.5681 5.50933C48.2373 5.50933 49.4637 6.26686 50.2132 7.54089C51.0648 6.19799 52.4274 5.50933 54.1307 5.50933C57.0263 5.50933 58.9681 7.54089 58.9681 10.7776Z" fill="white"/>
<path d="M35.7011 16.8379C35.7011 17.561 35.5308 18.1119 35.2242 18.4907C34.8154 19.0072 34.1681 19.1449 33.8275 19.1449C33.8275 19.1449 33.7934 19.1449 33.7593 19.1449H33.7253H33.6912C32.8055 19.1449 32.2264 18.3874 32.1923 18.3185L32.1582 18.2841C29.7736 15.3917 23.8461 9.50359 21.0527 6.74893C21.0868 6.71449 21.1209 6.71449 21.1549 6.68006C21.2912 6.57676 21.3934 6.47346 21.5297 6.37016C21.6319 6.30129 21.7 6.23243 21.8022 6.12913C21.9044 6.06026 21.9725 5.99139 22.0406 5.92253C22.1088 5.88809 22.1428 5.81923 22.211 5.78479C23.233 4.92396 24.2209 4.09756 24.9022 3.54663C24.9703 3.47776 25.0725 3.4089 25.1406 3.34003C25.2088 3.27116 25.311 3.2023 25.3791 3.13343C25.6176 2.92683 25.7538 2.82353 25.7538 2.82353C25.7538 2.82353 27.1505 1.58393 28.922 2.5825C29.1604 2.72023 29.3989 2.96126 29.6714 3.3056C29.7055 3.34003 29.7395 3.37446 29.7736 3.44333L29.8077 3.47776C29.8758 3.54663 29.9439 3.64993 30.0121 3.75323C30.0802 3.85653 30.1483 3.95983 30.2165 4.06313C30.2505 4.132 30.2846 4.16643 30.3187 4.2353C30.3527 4.26973 30.3868 4.30416 30.3868 4.37303C30.4209 4.4419 30.489 4.5452 30.5231 4.61406C30.5571 4.68293 30.5912 4.7518 30.6253 4.82066C30.6593 4.8551 30.6593 4.88953 30.6934 4.92396C30.7615 5.02726 30.7956 5.13056 30.8637 5.23386C30.8637 5.26829 30.8978 5.26829 30.8978 5.30273C31.0681 5.61263 31.2725 5.95696 31.4769 6.33573C31.511 6.40459 31.5791 6.50789 31.6132 6.57676C31.6472 6.64563 31.6813 6.74893 31.7494 6.81779C31.8176 6.95553 31.8857 7.09326 31.9538 7.23099C31.9538 7.26543 31.9879 7.29986 31.9879 7.33429C32.056 7.43759 32.0901 7.57532 32.1582 7.71306C32.3626 8.09182 32.533 8.50502 32.7033 8.91822C32.7714 9.09039 32.8736 9.26256 32.9417 9.46916C33.2143 10.0545 33.4527 10.6743 33.6912 11.2597C33.8275 11.5696 33.9637 11.9139 34.0659 12.2238C34.1341 12.396 34.2022 12.5337 34.2362 12.7059C34.3725 13.0502 34.5088 13.3946 34.611 13.7389C34.6791 13.9111 34.7132 14.0488 34.7813 14.2209C34.8494 14.3931 34.8835 14.5308 34.9516 14.703C35.0198 14.8407 35.0538 15.0129 35.0879 15.1506C35.122 15.2884 35.1901 15.4605 35.2242 15.5983C35.2582 15.7016 35.2923 15.8049 35.3264 15.9082C35.4286 16.1836 35.4967 16.4935 35.5648 16.7346C35.633 16.6313 35.667 16.7001 35.7011 16.8379Z" fill="white"/>
<path d="M35.0539 19.7999C34.7473 20.2475 34.5088 20.4541 34.5088 20.4541C34.5088 20.4541 33.4528 21.6593 31.6132 21.6593C31.6132 21.6593 30.3868 21.6937 29.433 21.0395C29.0923 20.7984 28.0704 20.1442 26.6396 19.3867C25.8561 18.9735 24.9022 18.4914 23.9143 18.0782C23.8802 18.0782 23.8802 18.0438 23.8462 18.0438C22.8242 17.5961 21.7682 17.1829 20.678 16.873C20.678 16.873 20.644 16.873 20.6099 16.8386C19.2132 16.4254 17.7824 16.1499 16.4879 16.1499C11.2418 16.1499 2.04398 21.4527 2.04398 21.4527C2.04398 21.4527 1.77145 21.6248 1.36266 21.6248C0.953871 21.6248 0.20442 21.4182 2.46316e-05 20.4885C-0.102173 20.0753 0.442882 18.6636 1.87365 16.3221C1.87365 16.3221 1.87365 16.2877 1.90772 16.2877C2.65717 15.0481 3.64508 13.5674 4.90552 11.8113C6.64288 9.36657 8.89123 6.47417 11.7868 3.06528C11.7868 3.06528 12.5022 2.20445 13.7627 2.20445C13.7627 2.20445 14.7846 2.13558 15.7385 2.92755C16.0791 3.20301 17.5099 4.58034 19.5539 6.54304C23.3352 10.2274 29.1945 16.1155 31.4429 18.9046C31.4429 18.9046 32.2945 20.1098 33.6912 20.1098H33.7594C33.7934 20.1098 33.8616 20.1098 33.8956 20.1098C34.1 20.0753 34.577 20.0409 35.0539 19.7999Z" fill="white"/>
<path opacity="0.2" d="M35.7011 16.8379C35.7011 17.561 35.5308 18.1119 35.2242 18.4907C34.8154 19.0072 34.1681 19.1449 33.8275 19.1449C33.8275 19.1449 33.7934 19.1449 33.7593 19.1449H33.7253H33.6912C32.8055 19.1449 32.2264 18.3874 32.1923 18.3185L32.1582 18.2841C29.7736 15.3917 23.8461 9.50359 21.0527 6.74893C21.0868 6.71449 21.1209 6.71449 21.1549 6.68006C21.2912 6.57676 21.3934 6.47346 21.5297 6.37016C21.6319 6.30129 21.7 6.23243 21.8022 6.12913C21.9044 6.06026 21.9725 5.99139 22.0406 5.92253C23.8802 6.71449 27.6956 8.53946 34.3384 12.6026C34.4747 12.9469 34.611 13.2913 34.7132 13.6356C34.7813 13.8077 34.8154 13.9455 34.8835 14.1177C34.9516 14.2898 34.9857 14.4275 35.0538 14.5997C35.122 14.7374 35.156 14.9096 35.1901 15.0473C35.2242 15.1851 35.2923 15.3572 35.3264 15.495C35.3604 15.5983 35.3945 15.7016 35.4286 15.8049C35.5308 16.0803 35.5989 16.3902 35.667 16.6313C35.633 16.6313 35.667 16.7001 35.7011 16.8379Z" fill="white"/>
<path opacity="0.2" d="M20.6099 16.8034C19.2132 16.3902 17.7824 16.1148 16.4879 16.1148C11.2418 16.1492 2.04398 21.4519 2.04398 21.4519C2.04398 21.4519 1.77145 21.6241 1.36266 21.6241C0.953871 21.6241 0.20442 21.4175 2.46316e-05 20.4878C-0.102173 20.0746 0.442882 18.6628 1.87365 16.3214C1.87365 16.3214 1.87365 16.2869 1.90772 16.2869C9.87915 13.5323 19.7583 16.528 20.6099 16.8034Z" fill="white"/>
</g>
<defs>
<clipPath id="clip0_406_16509">
<rect width="143.077" height="24" fill="white"/>
</clipPath>
</defs>
</svg>
